<svg width="600" height="600" viewBox="0 0 600 600" fill="none" xmlns="http://www.w3.org/2000/svg">
<path d="M54.24 182.4V417.6C54.24 432.72 62.16 446.4 75.36 454.08L279.12 571.68C292.08 579.12 308.16 579.12 321.12 571.68L524.88 454.08C537.84 446.64 546 432.72 546 417.6V182.4C546 167.28 538.08 153.6 524.88 145.92L321.12 28.32C308.16 20.88 292.08 20.88 279.12 28.32L75.36 145.92C62.4 153.36 54.48 167.28 54.48 182.4H54.24Z" fill="#213147"/>
<path d="M344.4 345.6L315.36 425.28C314.64 427.44 314.64 429.84 315.36 432.24L365.28 569.28L423.12 535.92L353.76 345.6C352.08 341.28 346.08 341.28 344.4 345.6Z" fill="#12AAFF"/>
<path d="M402.72 211.68C401.04 207.36 395.04 207.36 393.36 211.68L364.32 291.36C363.6 293.52 363.6 295.92 364.32 298.32L446.16 522.72L504 489.36L402.72 211.92V211.68Z" fill="#12AAFF"/>
<path d="M300 37.2C301.44 37.2 302.88 37.68 304.08 38.4L524.4 165.6C527.04 167.04 528.48 169.92 528.48 172.8V427.2C528.48 430.08 526.8 432.96 524.4 434.4L304.08 561.6C302.88 562.32 301.44 562.8 300 562.8C298.56 562.8 297.12 562.32 295.92 561.6L75.6 434.4C72.96 432.96 71.52 430.08 71.52 427.2V172.56C71.52 169.68 73.2 166.8 75.6 165.36L295.92 38.16C297.12 37.44 298.56 36.96 300 36.96V37.2ZM300 0C292.08 0 284.4 1.92 277.2 6L56.88 133.2C42.72 141.36 34.08 156.24 34.08 172.56V426.96C34.08 443.28 42.72 458.16 56.88 466.32L277.2 593.52C284.16 597.6 292.08 599.52 300 599.52C307.92 599.52 315.6 597.6 322.8 593.52L543.12 466.32C557.28 458.16 565.92 443.28 565.92 426.96V172.56C565.92 156.24 557.28 141.36 543.12 133.2L322.56 6C315.6 1.92 307.68 0 299.76 0H300Z" fill="#9DCCED"/>
<path d="M154.08 522.96L174.48 467.28L215.28 501.12L177.12 536.16L154.08 522.96Z" fill="#213147"/>
<path d="M281.28 154.56H225.36C221.28 154.56 217.44 157.2 216 161.04L96.24 489.36L154.08 522.72L286.08 161.04C287.28 157.68 284.88 154.32 281.52 154.32L281.28 154.56Z" fill="white"/>
<path d="M379.2 154.56H323.28C319.2 154.56 315.36 157.2 313.92 161.04L177.12 535.92L234.96 569.28L383.76 161.04C384.96 157.68 382.56 154.32 379.2 154.32V154.56Z" fill="white"/>
</svg>
