<svg width="586" height="654" viewBox="0 0 586 654" fill="none" xmlns="http://www.w3.org/2000/svg">
<path d="M75.1227 265.291C81.5753 279.002 97.7067 306.426 97.7067 306.426L282.411 0.735474L102.546 126.561C92.0607 133.82 83.1884 143.499 76.7359 154.791C59.7979 189.473 59.7979 229.802 75.1227 265.291Z" fill="url(#paint0_linear_4_3)"/>
<path d="M2.53137 365.305C6.56423 424.185 36.4073 479.032 83.1885 514.521L282.411 653.251C282.411 653.251 157.393 473.386 52.5388 294.327C42.0533 275.776 34.7942 254.805 31.5679 233.028C29.9548 223.349 29.9548 213.67 31.5679 203.991C29.1482 208.831 23.5022 219.316 23.5022 219.316C13.0168 241.094 5.75766 264.484 1.7248 288.681C-0.69491 314.492 -0.69491 340.302 2.53137 365.305Z" fill="#A0A8D4"/>
<path d="M510.671 389.502C504.218 375.791 488.087 348.367 488.087 348.367L303.382 653.251L484.054 528.233C494.539 520.973 503.412 511.295 509.864 500.003C525.996 465.32 526.802 424.992 510.671 389.502Z" fill="url(#paint1_linear_4_3)"/>
<path d="M584.069 288.681C580.036 229.802 550.193 174.955 503.412 139.466L304.189 0.735474C304.189 0.735474 429.208 180.601 534.062 359.659C544.547 378.211 551.806 399.181 555.033 420.959C556.646 430.638 556.646 440.317 555.033 449.995C557.452 445.156 563.098 434.671 563.098 434.671C573.584 412.893 580.843 389.503 584.876 366.112C586.489 339.495 586.489 314.492 584.069 288.681Z" fill="#A0A8D4"/>
<path d="M76.7359 154.79C83.1884 143.498 91.2541 133.82 102.546 126.561L282.411 0.735474L97.7067 305.619C97.7067 305.619 81.5753 278.196 75.1227 264.484C59.7979 229.802 59.7979 189.473 76.7359 154.79ZM2.53137 365.305C6.56423 424.185 36.4073 479.032 83.1884 514.521L282.411 653.251C282.411 653.251 157.393 473.386 52.5388 294.327C42.0533 275.776 34.7942 254.805 31.5679 233.028C29.9548 223.349 29.9548 213.67 31.5679 203.991C29.1482 208.831 23.5022 219.316 23.5022 219.316C13.0168 241.094 5.75766 264.484 1.7248 288.681C-0.69491 314.491 -0.69491 340.302 2.53137 365.305ZM510.671 389.503C504.218 375.791 488.087 348.367 488.087 348.367L303.382 653.251L484.054 528.233C494.54 520.974 503.412 511.295 509.864 500.003C525.996 465.32 526.802 424.992 510.671 389.503ZM583.262 289.488C579.229 230.608 549.386 175.761 502.605 140.272L304.189 0.735474C304.189 0.735474 429.207 180.601 534.061 359.659C544.547 378.211 551.806 399.181 555.032 420.959C556.646 430.638 556.646 440.317 555.032 449.995C557.452 445.156 563.098 434.671 563.098 434.671C573.583 412.893 580.843 389.503 584.875 366.112C586.489 339.495 586.489 314.491 583.262 289.488Z" fill="url(#paint2_linear_4_3)"/>
<defs>
<linearGradient id="paint0_linear_4_3" x1="290.813" y1="8.38257" x2="53.8293" y2="265.29" gradientUnits="userSpaceOnUse">
<stop offset="0.58" stop-color="#A0A8D4"/>
<stop offset="0.73" stop-color="#8791C7"/>
<stop offset="0.91" stop-color="#6470B4"/>
</linearGradient>
<linearGradient id="paint1_linear_4_3" x1="295.789" y1="646.141" x2="532.684" y2="389.417" gradientUnits="userSpaceOnUse">
<stop offset="0.58" stop-color="#A0A8D4"/>
<stop offset="0.73" stop-color="#8791C7"/>
<stop offset="0.91" stop-color="#6470B4"/>
</linearGradient>
<linearGradient id="paint2_linear_4_3" x1="293.079" y1="-2.49" x2="293.079" y2="655.671" gradientUnits="userSpaceOnUse">
<stop stop-color="#513EFF"/>
<stop offset="0.18" stop-color="#5157FF"/>
<stop offset="0.57" stop-color="#5298FF"/>
<stop offset="1" stop-color="#52E5FF"/>
</linearGradient>
</defs>
</svg>
