<svg width="600" height="600" viewBox="0 0 600 600" fill="none" xmlns="http://www.w3.org/2000/svg">
<path d="M176.361 341.51C194.289 341.51 210.757 335.4 224.037 325.304L114.608 215.851C104.382 229.002 98.4063 245.606 98.4063 263.538C98.4063 306.442 133.333 341.51 176.361 341.51Z" fill="url(#paint0_linear_1_103)"/>
<path d="M501.594 263.405C501.594 245.473 495.485 229.002 485.392 215.719L375.963 325.039C389.11 335.267 405.71 341.244 423.639 341.244C466.667 341.51 501.594 306.442 501.594 263.405Z" fill="url(#paint1_linear_1_103)"/>
<path d="M556.574 144.388L508.234 192.739C524.303 211.999 533.865 236.44 533.865 263.405C533.865 324.242 484.329 373.788 423.506 373.788C396.68 373.788 372.112 364.091 352.855 348.151L299.867 401.151L246.879 348.151C227.623 364.224 203.187 373.788 176.228 373.788C115.405 373.788 65.8699 324.242 65.8699 263.405C65.8699 236.573 75.5644 211.999 91.5007 192.739L66.7995 168.032L43.2935 144.521C15.8035 189.949 0 243.082 0 299.934C0 465.575 134.263 600 300 600C465.737 600 600 465.707 600 299.934C599.867 242.949 584.064 189.816 556.574 144.388Z" fill="url(#paint2_linear_1_103)"/>
<path d="M516.866 92.8492C462.417 35.5988 385.259 0 299.867 0C214.475 0 137.45 35.7317 82.8685 92.8492C75.4316 100.686 68.5259 108.922 61.8858 117.423L299.867 355.59L537.849 117.423C531.474 108.789 524.436 100.686 516.866 92.8492ZM300 39.1853C370.252 39.1853 435.325 66.2829 484.462 115.563L300 300.066L115.538 115.563C164.542 66.1501 229.748 39.1853 300 39.1853Z" fill="url(#paint3_linear_1_103)"/>
<defs>
<linearGradient id="paint0_linear_1_103" x1="-18.6945" y1="399.309" x2="408.525" y2="107.066" gradientUnits="userSpaceOnUse">
<stop offset="0.1861" stop-color="#009BB3"/>
<stop offset="0.4463" stop-color="#008B73"/>
<stop offset="0.5401" stop-color="#008B73"/>
<stop offset="1" stop-color="#E8663D"/>
</linearGradient>
<linearGradient id="paint1_linear_1_103" x1="79.7666" y1="543.246" x2="506.986" y2="251.002" gradientUnits="userSpaceOnUse">
<stop offset="0.1861" stop-color="#009BB3"/>
<stop offset="0.4463" stop-color="#008B73"/>
<stop offset="0.5401" stop-color="#008B73"/>
<stop offset="1" stop-color="#E8663D"/>
</linearGradient>
<linearGradient id="paint2_linear_1_103" x1="44.187" y1="491.233" x2="471.407" y2="198.99" gradientUnits="userSpaceOnUse">
<stop offset="0.1861" stop-color="#009BB3"/>
<stop offset="0.4463" stop-color="#008B73"/>
<stop offset="0.5401" stop-color="#008B73"/>
<stop offset="1" stop-color="#E8663D"/>
</linearGradient>
<linearGradient id="paint3_linear_1_103" x1="-35.1262" y1="375.288" x2="392.094" y2="83.0446" gradientUnits="userSpaceOnUse">
<stop offset="0.1861" stop-color="#009BB3"/>
<stop offset="0.4463" stop-color="#008B73"/>
<stop offset="0.5401" stop-color="#008B73"/>
<stop offset="1" stop-color="#E8663D"/>
</linearGradient>
</defs>
</svg>
