<svg width="600" height="600" viewBox="0 0 600 600" fill="none" xmlns="http://www.w3.org/2000/svg">
<g clip-path="url(#clip0_1_109)">
<path d="M300 600C465.685 600 600 465.685 600 300C600 134.315 465.685 0 300 0C134.315 0 0 134.315 0 300C0 465.685 134.315 600 300 600Z" fill="#FF0420"/>
<path d="M212.52 379.68C194.64 379.68 180 375.48 168.6 367.08C157.32 358.56 151.68 346.32 151.68 330.6C151.68 327.24 152.04 323.28 152.76 318.48C154.68 307.68 157.44 294.72 161.04 279.48C171.24 238.2 197.64 217.56 240.12 217.56C251.64 217.56 262.08 219.48 271.2 223.44C280.32 227.16 287.52 232.92 292.8 240.6C298.08 248.16 300.72 257.16 300.72 267.6C300.72 270.72 300.36 274.68 299.64 279.48C297.36 292.8 294.72 305.88 291.48 318.48C286.2 339 277.2 354.48 264.24 364.68C251.4 374.76 234.12 379.68 212.52 379.68ZM215.76 347.28C224.16 347.28 231.24 344.76 237.12 339.84C243.12 334.92 247.44 327.36 249.96 317.04C253.44 302.88 256.08 290.64 257.88 280.08C258.48 276.96 258.84 273.72 258.84 270.36C258.84 256.68 251.76 249.84 237.48 249.84C229.08 249.84 221.88 252.36 215.88 257.28C210 262.2 205.8 269.76 203.28 280.08C200.52 290.16 197.88 302.4 195.12 317.04C194.52 320.04 194.16 323.16 194.16 326.52C194.04 340.44 201.36 347.28 215.76 347.28Z" fill="white"/>
<path d="M311.16 377.52C309.48 377.52 308.28 377.04 307.32 375.96C306.6 374.76 306.36 373.44 306.6 371.88L337.68 225.48C337.92 223.8 338.76 222.48 340.2 221.4C341.52 220.32 342.96 219.84 344.52 219.84H404.4C421.08 219.84 434.4 223.32 444.48 230.16C454.68 237.12 459.84 247.08 459.84 260.16C459.84 263.88 459.36 267.84 458.52 271.92C454.8 289.2 447.24 301.92 435.72 310.2C424.44 318.48 408.96 322.56 389.28 322.56H358.92L348.6 371.88C348.24 373.56 347.52 374.88 346.08 375.96C344.76 377.04 343.32 377.52 341.76 377.52H311.16ZM390.84 291.48C397.2 291.48 402.6 289.8 407.28 286.32C412.08 282.84 415.2 277.92 416.76 271.44C417.24 268.92 417.48 266.64 417.48 264.72C417.48 260.4 416.16 257.04 413.64 254.76C411.12 252.36 406.68 251.16 400.56 251.16H373.56L365.04 291.48H390.84Z" fill="white"/>
</g>
<defs>
<clipPath id="clip0_1_109">
<rect width="600" height="600" fill="white"/>
</clipPath>
</defs>
</svg>
