<?xml version="1.0" encoding="UTF-8"?>
<svg version="1.1" xmlns="http://www.w3.org/2000/svg" width="225" height="225">
<path d="M0 0 C1.27589996 -0.00209976 1.27589996 -0.00209976 2.57757568 -0.00424194 C15.26434818 0.01297558 26.68991526 0.80463377 38.625 5.4375 C39.70007813 5.81003906 40.77515625 6.18257813 41.8828125 6.56640625 C57.07018222 12.25671318 70.28748244 22.00735567 81.625 33.4375 C82.16382813 33.91832031 82.70265625 34.39914063 83.2578125 34.89453125 C97.98438279 48.27180845 106.20765231 67.73735373 111.625 86.4375 C111.92301514 87.41529419 111.92301514 87.41529419 112.22705078 88.4128418 C114.27058977 96.07291714 114.02298867 104.00595776 114 111.875 C113.9987915 112.63483185 113.99758301 113.3946637 113.99633789 114.17752075 C113.94667871 125.66196214 113.49139868 136.52854695 109.625 147.4375 C109.35655273 148.20513672 109.08810547 148.97277344 108.81152344 149.76367188 C102.62225632 166.88525466 93.27416726 180.49462143 80.625 193.4375 C79.99851563 194.11425781 79.37203125 194.79101562 78.7265625 195.48828125 C67.30403583 207.58114399 51.23943164 215.65525559 35.58691406 220.78808594 C33.7724903 221.38867917 31.97502662 222.03987123 30.1796875 222.6953125 C4.91677999 230.63508343 -26.16693336 226.35855579 -49.43798828 214.46923828 C-60.7490972 208.44444041 -70.27794518 201.43643558 -79.375 192.4375 C-80.01566406 191.85742188 -80.65632813 191.27734375 -81.31640625 190.6796875 C-96.10704653 177.02150924 -104.76181324 157.68037559 -109.375 138.4375 C-109.55973877 137.72102295 -109.74447754 137.0045459 -109.93481445 136.26635742 C-111.76429147 128.41884238 -111.8139697 120.51643438 -111.8125 112.5 C-111.81389984 111.76994751 -111.81529968 111.03989502 -111.81674194 110.28771973 C-111.79795644 98.36104882 -110.49709499 87.67297049 -106.375 76.4375 C-105.99085937 75.27089844 -105.60671875 74.10429688 -105.2109375 72.90234375 C-100.60820427 59.76733294 -93.47303445 48.86408292 -84.375 38.4375 C-83.77042969 37.70015625 -83.16585937 36.9628125 -82.54296875 36.203125 C-81.20287434 34.57283982 -79.79631648 32.9974815 -78.375 31.4375 C-77.715 31.4375 -77.055 31.4375 -76.375 31.4375 C-76.375 30.7775 -76.375 30.1175 -76.375 29.4375 C-63.11428034 16.31222178 -45.21457246 7.30817275 -27.375 2.4375 C-26.12460938 2.07398437 -24.87421875 1.71046875 -23.5859375 1.3359375 C-15.88488571 -0.31417159 -7.84175397 -0.0012253 0 0 Z " fill="#87EC1D" transform="translate(111.375,-0.43749999999999994)"/>
<path d="M0 0 C1.32041039 -0.00810448 1.32041039 -0.00810448 2.66749573 -0.01637268 C5.57099249 -0.02885785 8.47349726 -0.01237033 11.37695312 0.00561523 C13.39807182 0.00546024 15.41919081 0.00397122 17.44030762 0.00120544 C21.67371784 -0.00017846 25.90678922 0.01237819 30.14013672 0.03515625 C35.56420727 0.06354068 40.98771488 0.06080335 46.41182709 0.04806614 C50.58458253 0.04110827 54.75720805 0.04889952 58.9299469 0.06132317 C60.92980959 0.0658366 62.92968623 0.06617541 64.92955017 0.06225777 C67.72545925 0.05934452 70.52059494 0.07585808 73.31640625 0.09765625 C74.55403465 0.09090378 74.55403465 0.09090378 75.81666565 0.08401489 C81.84664296 0.16205218 84.96353709 1.4514281 89.43835449 5.6318512 C91.82797544 9.61933717 91.72019253 12.8512027 91.67578125 17.41943359 C91.68279053 18.30785446 91.6897998 19.19627533 91.69702148 20.11161804 C91.71459854 23.04274941 91.7029787 25.97291187 91.68945312 28.90405273 C91.69214836 30.9451974 91.69603104 32.98634081 91.7010498 35.02748108 C91.70694467 39.30376417 91.69838302 43.57971284 91.6796875 47.85595703 C91.6569126 53.33159265 91.67001209 58.80644339 91.69397736 64.28205013 C91.70844788 68.49689115 91.7038233 72.71154684 91.69346619 76.92639351 C91.69080163 78.9449733 91.69405912 80.96357004 91.7033844 82.98213005 C91.71356888 85.80673496 91.69802162 88.63007861 91.67578125 91.45458984 C91.68387817 92.28543091 91.6919751 93.11627197 91.70031738 93.97229004 C91.62350902 99.25063588 90.73998532 102.3677099 87.15820312 106.50170898 C83.50359278 109.41905876 78.81958778 108.79707515 74.35400391 108.79223633 C73.02159164 108.80231216 73.02159164 108.80231216 71.66226196 108.81259155 C68.72595627 108.83158857 65.78987894 108.8354966 62.85351562 108.83764648 C60.81094265 108.84407319 58.7683706 108.85080145 56.72579956 108.8578186 C52.44364284 108.86979561 48.16156682 108.87349898 43.87939453 108.87231445 C38.39594078 108.87211123 32.91300512 108.89941474 27.42967415 108.93385887 C23.21057769 108.95611109 18.99160625 108.96015251 14.77245712 108.959095 C12.75106902 108.96145343 10.7296776 108.97029056 8.70834732 108.98575974 C5.8789277 109.00538566 3.05062962 108.99959497 0.22119141 108.98754883 C-0.6112207 108.99878784 -1.44363281 109.01002686 -2.30126953 109.02160645 C-7.56218645 108.96477482 -10.80760563 108.19859086 -14.84179688 104.50170898 C-17.23753046 99.73476803 -17.13256645 94.95075424 -17.11645508 89.72998047 C-17.12156601 88.86906799 -17.12667694 88.00815552 -17.13194275 87.12115479 C-17.1457918 84.28829919 -17.14488595 81.45568806 -17.14257812 78.62280273 C-17.14646675 76.64795339 -17.15080176 74.67310488 -17.15556335 72.69825745 C-17.16301482 68.56508671 -17.16274141 64.43200142 -17.1574707 60.29882812 C-17.15166803 55.00373989 -17.16863157 49.70900053 -17.19181538 44.41396999 C-17.20654686 40.33818011 -17.20742537 36.26247446 -17.20430565 32.18666267 C-17.20481884 30.23423635 -17.21005622 28.2818053 -17.22011757 26.32940483 C-17.23245748 23.60071972 -17.22570576 20.87271719 -17.21411133 18.14404297 C-17.22557693 16.93682335 -17.22557693 16.93682335 -17.23727417 15.70521545 C-17.17959599 9.56217843 -15.82511705 6.62090117 -11.70690918 2.2205658 C-7.73831956 -0.1602963 -4.54689445 -0.05327839 0 0 Z " fill="#080C08" transform="translate(74.841796875,57.498291015625)"/>
<path d="M0 0 C12.87 0 25.74 0 39 0 C39 12.87 39 25.74 39 39 C32.73 39 26.46 39 20 39 C20 32.73 20 26.46 20 20 C13.4 20 6.8 20 0 20 C0 13.4 0 6.8 0 0 Z " fill="#87EC20" transform="translate(102,83)"/>
<path d="M0 0 C0.598125 0.20625 1.19625 0.4125 1.8125 0.625 C1.1009375 1.2746875 1.1009375 1.2746875 0.375 1.9375 C-3.0456623 5.63181528 -2.3421192 10.30213505 -2.34863281 15.02441406 C-2.35359772 15.88167587 -2.35856262 16.73893768 -2.36367798 17.62217712 C-2.37829679 20.46166789 -2.38510175 23.30110276 -2.390625 26.140625 C-2.39637743 28.1149699 -2.40213516 30.08931479 -2.40789795 32.06365967 C-2.41840766 36.20634217 -2.42425028 40.34900526 -2.42773438 44.49169922 C-2.43321383 49.79225879 -2.45723031 55.09256081 -2.48570633 60.3930397 C-2.50435994 64.47319276 -2.5095398 68.55328417 -2.51107025 72.63347626 C-2.51409201 74.58704789 -2.52210443 76.54061855 -2.53525543 78.49414825 C-2.55237002 81.23229867 -2.55042229 83.96982514 -2.54394531 86.70800781 C-2.5531601 87.51034348 -2.56237488 88.31267914 -2.5718689 89.139328 C-2.53340182 94.34834795 -1.76291214 98.05218092 0.8125 102.625 C4.31088596 105.66571789 9.24254925 104.90503372 13.6484375 104.88378906 C14.53992493 104.8872937 15.43141235 104.89079834 16.34991455 104.89440918 C19.29585565 104.90320946 22.24155647 104.89738331 25.1875 104.890625 C27.23486375 104.89197214 29.28222719 104.89391308 31.32958984 104.89642334 C35.62014817 104.8993723 39.91062322 104.89508426 44.20117188 104.88574219 C49.7026126 104.87434783 55.20385818 104.88090851 60.70529175 104.89288712 C64.9328763 104.90011185 69.16041454 104.89781495 73.38800049 104.89263153 C75.41660587 104.89129673 77.44521544 104.89293681 79.47381592 104.89759064 C82.3081782 104.90266587 85.14222382 104.89493149 87.9765625 104.88378906 C89.23596649 104.88986176 89.23596649 104.88986176 90.52081299 104.89605713 C96.03891898 104.97399823 96.03891898 104.97399823 100.8125 102.625 C104.45982994 98.2663589 104.22843331 94.0668348 104.16894531 88.65966797 C104.17098969 87.76642822 104.17303406 86.87318848 104.17514038 85.95288086 C104.17814268 83.00743987 104.15968934 80.06256173 104.140625 77.1171875 C104.13756661 75.06885924 104.1356911 73.0205289 104.13494873 70.97219849 C104.1303493 66.68337014 104.11593556 62.39472993 104.09375 58.10595703 C104.06543233 52.6033656 104.05453442 47.10092208 104.0500679 41.59826469 C104.04591541 37.37072262 104.03609991 33.14321053 104.02419281 28.91568375 C104.01848909 26.88625453 104.01373072 24.85682243 104.00992584 22.82738876 C104.00306606 19.99538838 103.98943575 17.1635058 103.97363281 14.33154297 C103.97195602 13.06910263 103.97195602 13.06910263 103.97024536 11.78115845 C103.94577957 8.47771545 103.86439836 5.78069508 102.8125 2.625 C103.8025 2.955 104.7925 3.285 105.8125 3.625 C105.8125 35.965 105.8125 68.305 105.8125 101.625 C105.1525 101.625 104.4925 101.625 103.8125 101.625 C103.750625 102.24375 103.68875 102.8625 103.625 103.5 C102.8125 105.625 102.8125 105.625 100.80661011 106.74163818 C96.88678278 107.89811729 93.14291551 107.90396019 89.09423828 107.88378906 C88.22693085 107.8872937 87.35962341 107.89079834 86.46603394 107.89440918 C83.60487819 107.9031964 80.74397068 107.89738691 77.8828125 107.890625 C75.88890536 107.89197276 73.89499854 107.89391422 71.90109253 107.89642334 C67.7232551 107.89937073 63.54550325 107.89509019 59.36767578 107.88574219 C54.02237678 107.87436273 48.67727896 107.88090005 43.33198738 107.89288712 C39.21408586 107.9001287 35.09623169 107.89780697 30.9783287 107.89263153 C29.00802461 107.89130063 27.03771616 107.89292311 25.06741714 107.89759064 C22.3080133 107.90269199 19.54893081 107.89489436 16.78955078 107.88378906 C15.98100647 107.88783752 15.17246216 107.89188599 14.3394165 107.89605713 C8.19506255 107.85044263 2.07909877 107.02915343 -3.1875 103.625 C-5.6056338 97.57689159 -5.48156584 90.50909308 -5.4621582 84.07617188 C-5.46726913 83.1805957 -5.47238007 82.28501953 -5.47764587 81.36230469 C-5.49140604 78.43938288 -5.49059718 75.51670007 -5.48828125 72.59375 C-5.49217216 70.55017002 -5.49650764 68.50659084 -5.50126648 66.4630127 C-5.50869675 62.19992435 -5.50845809 57.9369189 -5.50317383 53.67382812 C-5.49734562 48.20144616 -5.51440593 42.72939897 -5.5375185 37.25707245 C-5.55220865 33.04673266 -5.55313466 28.83647476 -5.55000877 24.62611389 C-5.55052313 22.60701325 -5.55578215 20.58790815 -5.56582069 18.5688324 C-5.57809303 15.75855186 -5.57145221 12.94894086 -5.55981445 10.13867188 C-5.56745819 9.30130493 -5.57510193 8.46393799 -5.58297729 7.60119629 C-5.5617218 5.29089355 -5.5617218 5.29089355 -5.1875 1.625 C-2.1875 -0.375 -2.1875 -0.375 0 0 Z " fill="#87CE43" transform="translate(61.1875,60.375)"/>
<path d="M0 0 C6.6 0 13.2 0 20 0 C20 6.6 20 13.2 20 20 C13.4 20 6.8 20 0 20 C0 13.4 0 6.8 0 0 Z " fill="#85ED1D" transform="translate(82,122)"/>
<path d="M0 0 C0.598125 0.20625 1.19625 0.4125 1.8125 0.625 C1.1009375 1.2746875 1.1009375 1.2746875 0.375 1.9375 C-3.1296873 5.72256228 -2.36038269 10.66203624 -2.39282227 15.50268555 C-2.40272186 16.41020569 -2.41262146 17.31772583 -2.42282104 18.25274658 C-2.4544362 21.25571067 -2.4791936 24.25869058 -2.50390625 27.26171875 C-2.52447576 29.34251825 -2.54547223 31.42331356 -2.56687927 33.50410461 C-2.62210024 38.98345558 -2.67150945 44.46284426 -2.71972656 49.94226074 C-2.76994137 55.53250489 -2.82562755 61.1226942 -2.88085938 66.71289062 C-2.98844127 77.68354692 -3.08988622 88.6542508 -3.1875 99.625 C-3.5175 99.625 -3.8475 99.625 -4.1875 99.625 C-5.21056721 94.54739011 -5.34173766 89.68411796 -5.34863281 84.53027344 C-5.35359772 83.63528137 -5.35856262 82.74028931 -5.36367798 81.81817627 C-5.3782212 78.87356792 -5.38508521 75.92901328 -5.390625 72.984375 C-5.39637887 70.93507893 -5.40213658 68.88578287 -5.40789795 66.83648682 C-5.41838274 62.54951731 -5.42424323 58.26256645 -5.42773438 53.97558594 C-5.43324191 48.4717238 -5.45732837 42.96810621 -5.48570633 37.46432114 C-5.50427972 33.23682925 -5.50953527 29.00939723 -5.51107025 24.78186798 C-5.51410467 22.75159606 -5.52215959 20.72132539 -5.53525543 18.69109344 C-5.55222003 15.86125128 -5.55046043 13.03202013 -5.54394531 10.20214844 C-5.5531601 9.35849731 -5.56237488 8.51484619 -5.5718689 7.64562988 C-5.55499268 5.31781006 -5.55499268 5.31781006 -5.1875 1.625 C-2.1875 -0.375 -2.1875 -0.375 0 0 Z " fill="#92DF46" transform="translate(61.1875,60.375)"/>
<path d="M0 0 C2.61975864 2.61975864 2.24944633 4.48630726 2.28216553 8.05395508 C2.27968811 8.90231934 2.27721069 9.75068359 2.2746582 10.62475586 C2.27976913 11.51755753 2.28488007 12.41035919 2.29014587 13.33021545 C2.30408593 16.29182575 2.30308178 19.25320448 2.30078125 22.21484375 C2.3046658 24.26746203 2.30899996 26.3200795 2.31376648 28.37269592 C2.32123822 32.67939863 2.32093054 36.98601938 2.31567383 41.29272461 C2.30987837 46.81904616 2.32680751 52.34503266 2.3500185 57.87129879 C2.36473139 62.11171947 2.36563087 66.35205901 2.36250877 70.59250069 C2.36302323 72.63031236 2.36828419 74.66812843 2.37832069 76.70591545 C2.39062027 79.5527833 2.38393245 82.39899275 2.37231445 85.24584961 C2.37995819 86.09218964 2.38760193 86.93852966 2.39547729 87.81051636 C2.34258151 93.65741849 2.34258151 93.65741849 -1 97 C-1.66 94.03 -2.32 91.06 -3 88 C-2.34 88 -1.68 88 -1 88 C-1.00222061 87.04199997 -1.00444122 86.08399994 -1.00672913 85.0969696 C-1.02698449 76.07690957 -1.04198372 67.05685414 -1.05181217 58.03677654 C-1.05703489 53.39926393 -1.06412151 48.76176964 -1.07543945 44.12426758 C-1.08628996 39.65039197 -1.09228145 35.17653401 -1.09487724 30.70264626 C-1.09672758 28.99418675 -1.10034071 27.28572823 -1.10573006 25.57727623 C-1.11296916 23.18780795 -1.11398972 20.798413 -1.11352539 18.40893555 C-1.11712067 17.69971451 -1.12071594 16.99049347 -1.12442017 16.25978088 C-1.11801416 13.22136302 -0.96941367 10.90824101 0 8 C0.06665376 6.60560336 0.08538199 5.20830125 0.0625 3.8125 C0.041875 2.554375 0.02125 1.29625 0 0 Z " fill="#061A01" transform="translate(164,64)"/>
<path d="M0 0 C12.87 0 25.74 0 39 0 C39 12.87 39 25.74 39 39 C32.73 39 26.46 39 20 39 C20 32.73 20 26.46 20 20 C13.4 20 6.8 20 0 20 C0 13.4 0 6.8 0 0 Z M2 1 C2 6.61 2 12.22 2 18 C7.94 18.33 13.88 18.66 20 19 C20.4375 27.9375 20.4375 27.9375 20.56811523 30.75756836 C20.6252771 31.85016968 20.6252771 31.85016968 20.68359375 32.96484375 C20.72025146 33.7137085 20.75690918 34.46257324 20.79467773 35.23413086 C20.81771063 37.02461326 20.81771063 37.02461326 22 38 C27.28 38 32.56 38 38 38 C38 25.79 38 13.58 38 1 C26.12 1 14.24 1 2 1 Z " fill="#95DB52" transform="translate(102,83)"/>
<path d="M0 0 C6.6 0 13.2 0 20 0 C20 6.6 20 13.2 20 20 C13.4 20 6.8 20 0 20 C0 13.4 0 6.8 0 0 Z M3 3 C3 7.95 3 12.9 3 18 C8.28 18 13.56 18 19 18 C19 16.02 19 14.04 19 12 C18.01 12 17.02 12 16 12 C16 11.01 16 10.02 16 9 C16.66 9 17.32 9 18 9 C18 7.35 18 5.7 18 4 C13.73840618 1.86920309 7.59236298 2.95497683 3 3 Z " fill="#85CE3D" transform="translate(82,122)"/>
<path d="M0 0 C0.5625 1.9375 0.5625 1.9375 1 4 C0.67 4.33 0.34 4.66 0 5 C-0.12514411 7.70753726 -0.18607128 10.39082104 -0.20532227 13.09985352 C-0.21522186 13.94856018 -0.22512146 14.79726685 -0.23532104 15.67169189 C-0.26703247 18.49073449 -0.29173139 21.30979398 -0.31640625 24.12890625 C-0.33696746 26.07804311 -0.3579637 28.02717544 -0.37937927 29.9763031 C-0.43468598 35.11701793 -0.4840572 40.25777357 -0.53222656 45.39855957 C-0.58237897 50.64009247 -0.63809763 55.8815658 -0.69335938 61.12304688 C-0.80104606 71.41531375 -0.90246753 81.70763225 -1 92 C-0.01 92.33 0.98 92.66 2 93 C1.979375 93.7425 1.95875 94.485 1.9375 95.25 C2.72134074 98.12394327 2.72134074 98.12394327 5.0703125 99.22265625 C7.3588977 100.22346389 9.65126015 101.15065771 12 102 C12 102.33 12 102.66 12 103 C8.205307 103.36139933 6.19891788 103.09945894 2.75 101.375 C-0.75453351 98.34835742 -1.75460635 95.67286695 -2.17945099 91.04539108 C-2.25964373 88.76520208 -2.27027255 86.49397512 -2.25878906 84.21240234 C-2.2622937 83.34988358 -2.26579834 82.48736481 -2.26940918 81.59870911 C-2.27817838 78.76103559 -2.2723954 75.92361334 -2.265625 73.0859375 C-2.26697279 71.10869296 -2.26891427 69.13144873 -2.27142334 67.15420532 C-2.27436787 63.01683385 -2.27009759 58.8795489 -2.26074219 54.7421875 C-2.24933313 49.43809839 -2.25592059 44.13421137 -2.26788712 38.83012962 C-2.27511106 34.75009638 -2.27281557 30.67011113 -2.26763153 26.59007645 C-2.26629729 24.63403932 -2.26793486 22.67799783 -2.27259064 20.72196579 C-2.27766625 17.99079571 -2.26993169 15.25995418 -2.25878906 12.52880859 C-2.26283752 11.72040024 -2.26688599 10.91199188 -2.27105713 10.0790863 C-2.2420966 6.2498583 -2.17493352 3.24297039 0 0 Z " fill="#062E00" transform="translate(60,63)"/>
<path d="M0 0 C0.66 0.33 1.32 0.66 2 1 C1.01 1.33 0.02 1.66 -1 2 C-0.505 3.485 -0.505 3.485 0 5 C-0.969375 5.28875 -1.93875 5.5775 -2.9375 5.875 C-6.10664203 6.64214682 -6.10664203 6.64214682 -7 9 C-8.0725 9.268125 -9.145 9.53625 -10.25 9.8125 C-16.66897222 11.84517454 -21.08857379 17.46386152 -24.25 23.3125 C-24.62125 24.1478125 -24.62125 24.1478125 -25 25 C-25.66 25 -26.32 25 -27 25 C-27 25.66 -27 26.32 -27 27 C-28.32 27.33 -29.64 27.66 -31 28 C-31 27.34 -31 26.68 -31 26 C-31.66 25.67 -32.32 25.34 -33 25 C-31.625 23 -31.625 23 -30 21 C-29.34 21 -28.68 21 -28 21 C-28 20.34 -28 19.68 -28 19 C-26.61401367 17.67480469 -26.61401367 17.67480469 -24.66796875 16.171875 C-23.60074585 15.34647217 -23.60074585 15.34647217 -22.51196289 14.50439453 C-21.74489014 13.92544434 -20.97781738 13.34649414 -20.1875 12.75 C-19.41591553 12.16460449 -18.64433105 11.57920898 -17.84936523 10.97607422 C-6.39645686 2.41893301 -6.39645686 2.41893301 0 0 Z " fill="#8DEA25" transform="translate(63,10)"/>
<path d="M0 0 C-1 3 -1 3 -2.54071045 4.17330933 C-6.11828372 5.3759113 -9.61818705 5.26101452 -13.34863281 5.22705078 C-14.18802399 5.22734283 -15.02741516 5.22763489 -15.89224243 5.22793579 C-18.66264231 5.22654409 -21.43277219 5.21099039 -24.203125 5.1953125 C-26.12554782 5.1915818 -28.04797255 5.1887351 -29.97039795 5.18673706 C-35.02731588 5.17910508 -40.08411872 5.15946027 -45.14099121 5.1373291 C-50.30231164 5.11686134 -55.46365068 5.10773335 -60.625 5.09765625 C-70.75005054 5.07621401 -80.87501569 5.04208326 -91 5 C-91.33 4.34 -91.66 3.68 -92 3 C-91.10401093 3.00444122 -90.20802185 3.00888245 -89.28488159 3.01345825 C-80.78332309 3.05376467 -72.28179732 3.08410007 -63.78016472 3.10362434 C-59.41085563 3.11399983 -55.04162642 3.12804304 -50.67236328 3.15087891 C-46.44481766 3.17283231 -42.21734819 3.18461532 -37.98974991 3.18975449 C-36.3880608 3.19341033 -34.78637519 3.20054734 -33.18471909 3.21146011 C-22.01558172 3.28443696 -10.64672896 0 0 0 Z " fill="#001300" transform="translate(163,161)"/>
<path d="M0 0 C3.69710918 4.11060166 5.57934368 8.21778088 7.5 13.3125 C7.80043213 14.10213135 8.10086426 14.8917627 8.41040039 15.70532227 C12.55739794 26.88802356 15.92005453 37.93706282 15 50 C12.60175053 47.60175053 12.68563796 46.72664782 12.4375 43.4375 C12.41550697 40.41952212 12.41550697 40.41952212 11 38 C10.75572862 35.5165743 10.61640241 33.03432707 10.4765625 30.54296875 C10.18591599 27.94632752 10.18591599 27.94632752 8.53515625 26.06640625 C6.52017868 23.35413364 6.28221435 21.07413232 5.8125 17.75 C5.57466797 16.13351563 5.57466797 16.13351563 5.33203125 14.484375 C5.22246094 13.66453125 5.11289063 12.8446875 5 12 C4.34 12 3.68 12 3 12 C2.67 10.35 2.34 8.7 2 7 C1.34 7 0.68 7 0 7 C0 4.69 0 2.38 0 0 Z " fill="#8DCD35" transform="translate(210,56)"/>
<path d="M0 0 C12.15238791 -0.09270935 24.30469159 -0.16377 36.45736122 -0.20724869 C42.10044477 -0.22811706 47.74328624 -0.25642148 53.38623047 -0.30175781 C58.83272046 -0.34524161 64.2789777 -0.36914275 69.7256279 -0.37950897 C71.80285684 -0.38689573 73.88007314 -0.40132037 75.95720291 -0.42292023 C78.86839506 -0.45198749 81.77862733 -0.45595456 84.68994141 -0.45410156 C85.54733917 -0.46848267 86.40473694 -0.48286377 87.28811646 -0.49768066 C92.80739496 -0.45970589 95.70304581 0.49647233 100 4 C99.34 4.66 98.68 5.32 98 6 C97.566875 5.525625 97.13375 5.05125 96.6875 4.5625 C92.88652784 1.04308134 87.97332268 1.86616715 83.12231445 1.88647461 C82.21479431 1.88632858 81.30727417 1.88618256 80.37225342 1.8860321 C77.36923848 1.88672939 74.36628537 1.89451324 71.36328125 1.90234375 C69.28248631 1.90420858 67.20169092 1.90563218 65.12089539 1.90663147 C59.6414977 1.91045151 54.16212648 1.92027745 48.68273926 1.93133545 C43.09253294 1.94156057 37.50232235 1.94613145 31.91210938 1.95117188 C20.94139462 1.96190015 9.97069951 1.97897045 -1 2 C-0.67 1.34 -0.34 0.68 0 0 Z " fill="#91E649" transform="translate(65,57)"/>
<path d="M0 0 C16.59057328 -1.67769842 35.07536703 5.45533886 49 14 C46 15 46 15 43.375 14.1875 C41 13 41 13 40 11 C37.42048126 10.30906104 37.42048126 10.30906104 34.4375 9.875 C33.42558594 9.70742187 32.41367188 9.53984375 31.37109375 9.3671875 C30.58863281 9.24601563 29.80617187 9.12484375 29 9 C29 8.34 29 7.68 29 7 C26.06298109 6.49702428 23.12544669 5.99750127 20.1875 5.5 C18.93743164 5.28537109 18.93743164 5.28537109 17.66210938 5.06640625 C16.85966797 4.93105469 16.05722656 4.79570313 15.23046875 4.65625 C14.12288208 4.46772461 14.12288208 4.46772461 12.99291992 4.27539062 C10.84001599 3.93155811 10.84001599 3.93155811 8 4 C8 3.01 8 2.02 8 1 C5.36 1 2.72 1 0 1 C0 0.67 0 0.34 0 0 Z " fill="#97D942" transform="translate(120,0)"/>
<path d="M0 0 C1.60080151 4.00200378 0.29279692 7.04556236 -1 11 C-0.34 11.66 0.32 12.32 1 13 C1 13.99 1 14.98 1 16 C0.34 16.33 -0.32 16.66 -1 17 C-1.62036829 19.40726643 -2.12519745 21.74647254 -2.5625 24.1875 C-2.68818359 24.84814453 -2.81386719 25.50878906 -2.94335938 26.18945312 C-3.68392461 30.11716301 -4.35586966 34.0554685 -5 38 C-5.33 38 -5.66 38 -6 38 C-8.44042837 24.54139996 -4.32746711 12.65733338 0 0 Z " fill="#8FDC35" transform="translate(7,70)"/>
<path d="M0 0 C0 0.33 0 0.66 0 1 C-1.18078125 1.20496094 -2.3615625 1.40992187 -3.578125 1.62109375 C-5.13542997 1.89315305 -6.6927209 2.16529268 -8.25 2.4375 C-9.02730469 2.57220703 -9.80460937 2.70691406 -10.60546875 2.84570312 C-11.35957031 2.97783203 -12.11367187 3.10996094 -12.890625 3.24609375 C-13.58188477 3.36654053 -14.27314453 3.4869873 -14.98535156 3.61108398 C-17.01298093 4.00250589 -18.9990901 4.4909739 -21 5 C-21.763125 5.144375 -22.52625 5.28875 -23.3125 5.4375 C-27.71668741 6.35930667 -31.97195418 7.61700254 -36.1875 9.1875 C-39.13898252 10.04015051 -40.16269724 9.85665886 -43 9 C-28.77646948 2.42700484 -15.64440993 -0.80919362 0 0 Z " fill="#9DE146" transform="translate(108,0)"/>
<path d="M0 0 C2 2 2 2 2.1953125 5.6953125 C2.1838709 7.17201668 2.15789907 8.64861801 2.125 10.125 C2.08375 12.72375 2.0425 15.3225 2 18 C7.94 18 13.88 18 20 18 C20 18.66 20 19.32 20 20 C13.4 20 6.8 20 0 20 C0 13.4 0 6.8 0 0 Z " fill="#7ABB3B" transform="translate(102,83)"/>
<path d="M0 0 C-8.51150088 4.41918171 -17.02113096 7.84953567 -26.25 10.5 C-27.16676514 10.76699707 -28.08353027 11.03399414 -29.02807617 11.30908203 C-35.6125 13.12916667 -35.6125 13.12916667 -39 12 C-37.4188708 11.49307308 -35.83498617 10.99473557 -34.25 10.5 C-33.36828125 10.2215625 -32.4865625 9.943125 -31.578125 9.65625 C-29 9 -29 9 -25 9 C-25 8.34 -25 7.68 -25 7 C-23.4188708 6.49307308 -21.83498617 5.99473557 -20.25 5.5 C-19.36828125 5.2215625 -18.4865625 4.943125 -17.578125 4.65625 C-15 4 -15 4 -11 4 C-11 3.34 -11 2.68 -11 2 C-9.73392393 1.46770674 -8.46189588 0.94955456 -7.1875 0.4375 C-6.47980469 0.14746094 -5.77210938 -0.14257812 -5.04296875 -0.44140625 C-3 -1 -3 -1 0 0 Z " fill="#8DCA36" transform="translate(169,211)"/>
<path d="M0 0 C3.48350239 3.20848905 5.28242696 5.64881496 7 10 C8.051875 10.7734375 8.051875 10.7734375 9.125 11.5625 C9.74375 12.036875 10.3625 12.51125 11 13 C11 14.32 11 15.64 11 17 C11.99 17 12.98 17 14 17 C16.10865385 20.47307692 16.10865385 20.47307692 15.55859375 23.140625 C15.28208984 24.06101563 15.28208984 24.06101563 15 25 C0 4.52427184 0 4.52427184 0 0 Z " fill="#8FD233" transform="translate(10,160)"/>
<path d="M0 0 C0.94878643 3.03449907 0.99823405 5.06259317 0.29296875 8.15234375 C0.11830078 8.92900391 -0.05636719 9.70566406 -0.23632812 10.50585938 C-0.42646484 11.30830078 -0.61660156 12.11074219 -0.8125 12.9375 C-0.99103516 13.73607422 -1.16957031 14.53464844 -1.35351562 15.35742188 C-2.28000672 19.39451486 -3.30441133 23.20218826 -5 27 C-5.185625 26.1028125 -5.185625 26.1028125 -5.375 25.1875 C-5.95475985 22.73768652 -5.95475985 22.73768652 -8 20 C-7.01 19.67 -6.02 19.34 -5 19 C-4.11308154 15.07221823 -3.7051465 11.18871347 -3.37890625 7.18359375 C-2.89851265 4.41513992 -2.01412864 2.01412864 0 0 Z " fill="#8DCC39" transform="translate(224,125)"/>
<path d="M0 0 C0.66 0.33 1.32 0.66 2 1 C1.01 1.33 0.02 1.66 -1 2 C-0.67 2.99 -0.34 3.98 0 5 C-0.969375 5.28875 -1.93875 5.5775 -2.9375 5.875 C-6.10664203 6.64214682 -6.10664203 6.64214682 -7 9 C-8.7421875 9.88671875 -8.7421875 9.88671875 -10.875 10.6875 C-11.57367188 10.95949219 -12.27234375 11.23148438 -12.9921875 11.51171875 C-15 12 -15 12 -18 11 C-15.7516034 9.53914338 -13.50137827 8.08124864 -11.25 6.625 C-10.61578125 6.2125 -9.9815625 5.8 -9.328125 5.375 C-2.51727594 0.97632665 -2.51727594 0.97632665 0 0 Z " fill="#96D643" transform="translate(63,10)"/>
<path d="M0 0 C5.22067154 4.08825709 9.14156519 8.4567362 12.9375 13.875 C13.43056641 14.56335937 13.92363281 15.25171875 14.43164062 15.9609375 C15.62903908 17.63497029 16.81568399 19.31668647 18 21 C17.67 21.66 17.34 22.32 17 23 C16.34 21.68 15.68 20.36 15 19 C14.34 19 13.68 19 13 19 C12.67 18.01 12.34 17.02 12 16 C10.824375 15.1028125 10.824375 15.1028125 9.625 14.1875 C6.64692271 11.70576893 5.68510885 9.44348329 4 6 C2.68036291 4.98199424 1.34990354 3.97751635 0 3 C0 2.01 0 1.02 0 0 Z " fill="#8AC23B" transform="translate(192,33)"/>
<path d="M0 0 C4.75026807 -0.36540524 8.23384654 0.62232345 12.62109375 2.2109375 C15.7183349 3.23826543 18.84280087 3.82241735 22.0546875 4.375 C24.36757917 5.11809773 25.42866589 6.18160078 27 8 C17.66156333 6.67441683 8.92831536 3.93502964 0 1 C0 0.67 0 0.34 0 0 Z " fill="#8ECC38" transform="translate(68,216)"/>
<path d="M0 0 C1.47668858 0.0133035 2.95331108 0.03716415 4.4296875 0.0703125 C5.18378906 0.07933594 5.93789062 0.08835938 6.71484375 0.09765625 C8.57826004 0.1212438 10.44151343 0.15711531 12.3046875 0.1953125 C12.3046875 0.5253125 12.3046875 0.8553125 12.3046875 1.1953125 C7.6846875 1.5253125 3.0646875 1.8553125 -1.6953125 2.1953125 C-2.0253125 3.1853125 -2.3553125 4.1753125 -2.6953125 5.1953125 C-3.6853125 5.6903125 -3.6853125 5.6903125 -4.6953125 6.1953125 C-5.42225154 8.17420211 -6.09347501 10.17485808 -6.6953125 12.1953125 C-7.3553125 11.2053125 -8.0153125 10.2153125 -8.6953125 9.1953125 C-5.57222569 0.2945151 -5.57222569 0.2945151 0 0 Z " fill="#071603" transform="translate(67.6953125,58.8046875)"/>
<path d="M0 0 C2.80848017 1.40424009 2.92414585 3.10864198 4 6 C4.32742187 6.60714844 4.65484375 7.21429688 4.9921875 7.83984375 C6.14061086 10.30138684 6.63352342 12.5819843 7.125 15.25 C7.29257813 16.14203125 7.46015625 17.0340625 7.6328125 17.953125 C7.75398437 18.62859375 7.87515625 19.3040625 8 20 C7.34 20 6.68 20 6 20 C0.44419134 6.3667426 0.44419134 6.3667426 0 0 Z " fill="#91D13B" transform="translate(3,139)"/>
<path d="M0 0 C1.65 0 3.3 0 5 0 C5.556875 1.051875 6.11375 2.10375 6.6875 3.1875 C9.24824906 7.66427051 11.98126849 11.3270895 17 13 C17.6875 15.0625 17.6875 15.0625 18 17 C13.28063125 14.07342448 9.4987062 10.77707091 5.625 6.8125 C5.07972656 6.26658203 4.53445312 5.72066406 3.97265625 5.15820312 C0 1.14074248 0 1.14074248 0 0 Z " fill="#90CE39" transform="translate(26,185)"/>
<path d="M0 0 C4.67199091 1.53093488 8.02170005 4.10757395 11.8125 7.125 C12.40998047 7.59292969 13.00746094 8.06085937 13.62304688 8.54296875 C15.08616792 9.69005565 16.54366297 10.84431234 18 12 C15.53721199 13.231394 13.7204945 13.07159196 11 13 C10.484375 11.948125 9.96875 10.89625 9.4375 9.8125 C7.05820646 5.57787286 4.02271018 3.63023358 0 1 C0 0.67 0 0.34 0 0 Z " fill="#8CCA3B" transform="translate(169,15)"/>
<path d="M0 0 C0.66 0 1.32 0 2 0 C2.43054687 0.433125 2.86109375 0.86625 3.3046875 1.3125 C6.04370519 4.03889548 9.46229879 5.63119237 12.8203125 7.5 C15 9 15 9 16 12 C11.31812124 10.68018255 7.99625079 8.80204328 4.125 5.875 C3.15820312 5.15054688 2.19140625 4.42609375 1.1953125 3.6796875 C0.47085938 3.12539062 -0.25359375 2.57109375 -1 2 C-0.67 1.34 -0.34 0.68 0 0 Z " fill="#8BCD30" transform="translate(46,201)"/>
<path d="M0 0 C0.99 0.33 1.98 0.66 3 1 C2.979375 1.7425 2.95875 2.485 2.9375 3.25 C3.72134074 6.12394327 3.72134074 6.12394327 6.0703125 7.22265625 C8.3588977 8.22346389 10.65126015 9.15065771 13 10 C13 10.33 13 10.66 13 11 C9.22549116 11.35947703 7.15321104 11.07226936 3.6875 9.4375 C1 7 1 7 0.125 3.25 C0.08375 2.1775 0.0425 1.105 0 0 Z " fill="#0D2004" transform="translate(59,155)"/>
<path d="M0 0 C1.53271273 4.58798777 0.02911182 6.77944742 -2 11 C-2.66 11 -3.32 11 -4 11 C-4.33 12.32 -4.66 13.64 -5 15 C-5.66 15 -6.32 15 -7 15 C-7 15.99 -7 16.98 -7 18 C-7.66 18 -8.32 18 -9 18 C-7.65072455 13.46152802 -5.80840652 9.68067754 -3.375 5.625 C-2.74335938 4.56539062 -2.11171875 3.50578125 -1.4609375 2.4140625 C-0.73777344 1.21910156 -0.73777344 1.21910156 0 0 Z " fill="#95CF40" transform="translate(17,51)"/>
<path d="M0 0 C0.66 0.33 1.32 0.66 2 1 C3 4 3 4 2 7 C4.64 7 7.28 7 10 7 C10.33 7.66 10.66 8.32 11 9 C1.95423341 9.45995423 1.95423341 9.45995423 -2 6 C-2 2 -2 2 0 0 Z " fill="#89DF25" transform="translate(94,216)"/>
<path d="M0 0 C0.33 1.32 0.66 2.64 1 4 C0.21625 4.5775 -0.5675 5.155 -1.375 5.75 C-3.88032062 7.89741768 -4.68885883 9.09675884 -6 12 C-7.5 13.75 -7.5 13.75 -9 15 C-9.66 15 -10.32 15 -11 15 C-9.52834523 11.77707606 -7.69245806 9.15273288 -5.5 6.375 C-4.8915625 5.59898438 -4.283125 4.82296875 -3.65625 4.0234375 C-2 2 -2 2 0 0 Z " fill="#92D141" transform="translate(29,36)"/>
<path d="M0 0 C0.99 0.33 1.98 0.66 3 1 C-0.35973367 5.11018964 -3.60282237 8.94640442 -8 12 C-8.66 12 -9.32 12 -10 12 C-10 11.34 -10 10.68 -10 10 C-9.34 10 -8.68 10 -8 10 C-7.67 9.01 -7.34 8.02 -7 7 C-6.01 7 -5.02 7 -4 7 C-4 5.68 -4 4.36 -4 3 C-2.68 3 -1.36 3 0 3 C0 2.01 0 1.02 0 0 Z " fill="#93CE3D" transform="translate(189,191)"/>
<path d="M0 0 C-0.33 0.99 -0.66 1.98 -1 3 C-3.58203125 3.984375 -3.58203125 3.984375 -6.8125 4.75 C-7.87082031 5.01296875 -8.92914063 5.2759375 -10.01953125 5.546875 C-12.81733936 5.97222984 -14.37531844 5.94056385 -17 5 C-15.10908264 4.15557119 -13.21202485 3.32488413 -11.3125 2.5 C-10.25675781 2.0359375 -9.20101562 1.571875 -8.11328125 1.09375 C-5.14372184 0.05049199 -3.10804937 -0.23065301 0 0 Z " fill="#A2DA53" transform="translate(82,4)"/>
<path d="M0 0 C0.66 0.33 1.32 0.66 2 1 C1.27683594 1.81404297 1.27683594 1.81404297 0.5390625 2.64453125 C-0.09257813 3.35996094 -0.72421875 4.07539063 -1.375 4.8125 C-2.00148438 5.52019531 -2.62796875 6.22789063 -3.2734375 6.95703125 C-5.140599 9.08803819 -5.140599 9.08803819 -7 12 C-8.32 11.67 -9.64 11.34 -11 11 C-9.625 9 -9.625 9 -8 7 C-7.34 7 -6.68 7 -6 7 C-6 6.34 -6 5.68 -6 5 C-4.04072937 3.2856382 -2.04119788 1.61594832 0 0 Z " fill="#96D241" transform="translate(41,24)"/>
<path d="M0 0 C4.98599117 0.53800209 8.51835705 2.11744529 12.875 4.5625 C14.02742187 5.20316406 15.17984375 5.84382812 16.3671875 6.50390625 C17.67042969 7.24447266 17.67042969 7.24447266 19 8 C16 9 16 9 13.375 8.1875 C11 7 11 7 10 5 C8.66961551 4.6550855 7.33542939 4.32483418 6 4 C3.98473831 3.03112419 1.98166034 2.0358679 0 1 C0 0.67 0 0.34 0 0 Z " fill="#97CF4A" transform="translate(150,6)"/>
<path d="M0 0 C1 3 1 3 -0.21484375 5.91796875 C-0.78332031 6.99691406 -1.35179687 8.07585937 -1.9375 9.1875 C-2.50339844 10.27417969 -3.06929687 11.36085937 -3.65234375 12.48046875 C-4.09707031 13.31191406 -4.54179687 14.14335937 -5 15 C-6 12 -6 12 -5.125 10.1875 C-4.75375 9.465625 -4.3825 8.74375 -4 8 C-3.855625 6.96875 -3.71125 5.9375 -3.5625 4.875 C-3.376875 3.92625 -3.19125 2.9775 -3 2 C-2.01 1.34 -1.02 0.68 0 0 Z " fill="#95CD40" transform="translate(217,152)"/>
<path d="M0 0 C0.33 0.66 0.66 1.32 1 2 C-2.96 7.94 -2.96 7.94 -7 14 C-8 12 -8 12 -7.375 9.1875 C-5.8129715 5.56643394 -3.91405876 3.61518094 -1 1 C-0.67 0.67 -0.34 0.34 0 0 Z " fill="#91CD45" transform="translate(210,167)"/>
<path d="M0 0 C4.21912747 0.4794463 6.79663178 1.16625119 10 4 C9.67 4.66 9.34 5.32 9 6 C8.01 5.67 7.02 5.34 6 5 C6 4.34 6 3.68 6 3 C4.8553125 3.5259375 4.8553125 3.5259375 3.6875 4.0625 C1 5 1 5 -2 4 C-1.34 2.68 -0.68 1.36 0 0 Z " fill="#86D82B" transform="translate(182,27)"/>
<path d="M0 0 C-1 3 -1 3 -2.6875 4.1875 C-5.54969093 5.19313465 -7.98827908 5.13689641 -11 5 C-8.33297073 0.99945609 -4.80529469 0 0 0 Z " fill="#0B2003" transform="translate(163,161)"/>
<path d="M0 0 C4.23429756 1.31061591 8.07407404 2.94356259 12 5 C8.93109813 6.53445094 6.29905734 5.54984289 3 5 C3 4.34 3 3.68 3 3 C2.01 2.67 1.02 2.34 0 2 C0 1.34 0 0.68 0 0 Z " fill="#88E023" transform="translate(154,9)"/>
<path d="M0 0 C4.83290538 4.049191 6.3833652 7.96719209 8 14 C5.50447597 11.72402354 3.93377014 9.39278822 2.3125 6.4375 C1.87550781 5.65246094 1.43851563 4.86742187 0.98828125 4.05859375 C0 2 0 2 0 0 Z " fill="#95CB41" transform="translate(10,160)"/>
<path d="M0 0 C0.99 0 1.98 0 3 0 C3 0.66 3 1.32 3 2 C2.34 2 1.68 2 1 2 C0.67 3.32 0.34 4.64 0 6 C-1.98 6 -3.96 6 -6 6 C-4 4 -2 2 0 0 Z " fill="#86D03B" transform="translate(164,160)"/>
<path d="M0 0 C-1.125 1.5 -1.125 1.5 -3 3 C-6.1875 3.1875 -6.1875 3.1875 -9 3 C-9.33 2.34 -9.66 1.68 -10 1 C-3.71428571 -1.42857143 -3.71428571 -1.42857143 0 0 Z " fill="#8CE625" transform="translate(75,9)"/>
<path d="M0 0 C-0.639375 0.28875 -1.27875 0.5775 -1.9375 0.875 C-4.15206079 1.82823451 -4.15206079 1.82823451 -5 4 C-8.3 3.67 -11.6 3.34 -15 3 C-15 2.67 -15 2.34 -15 2 C-13.43883181 1.66048381 -11.87598662 1.32867456 -10.3125 1 C-9.44238281 0.814375 -8.57226562 0.62875 -7.67578125 0.4375 C-5.06287036 0.01027953 -2.64186962 -0.07616201 0 0 Z " fill="#8AE428" transform="translate(105,1)"/>
<path d="M0 0 C0.33 0.66 0.66 1.32 1 2 C1.66 2 2.32 2 3 2 C3 6.62 3 11.24 3 16 C2.34 15.67 1.68 15.34 1 15 C0.68758629 12.45058627 0.48696579 9.99638487 0.375 7.4375 C0.33632813 6.72658203 0.29765625 6.01566406 0.2578125 5.28320312 C0.16328217 3.52257575 0.08054183 1.76132272 0 0 Z " fill="#89E023" transform="translate(2,124)"/>
<path d="M0 0 C0.33 0.66 0.66 1.32 1 2 C1.66 2 2.32 2 3 2 C3 3.32 3 4.64 3 6 C3.66 6 4.32 6 5 6 C4.34 7.32 3.68 8.64 3 10 C2.01 9.01 1.02 8.02 0 7 C0.66 7 1.32 7 2 7 C1.67 6.401875 1.34 5.80375 1 5.1875 C0 3 0 3 0 0 Z " fill="#90E724" transform="translate(9,152)"/>
<path d="M0 0 C0.33 0 0.66 0 1 0 C1.92470553 4.71599818 2.22923777 7.67265609 0 12 C-0.185625 11.1028125 -0.185625 11.1028125 -0.375 10.1875 C-0.95475985 7.73768652 -0.95475985 7.73768652 -3 5 C-2.01 4.67 -1.02 4.34 0 4 C0 2.68 0 1.36 0 0 Z " fill="#97DD33" transform="translate(219,140)"/>
<path d="M0 0 C1.32 0.33 2.64 0.66 4 1 C2.8553125 1.8971875 2.8553125 1.8971875 1.6875 2.8125 C-0.3483575 4.46959332 -2.1978279 6.10297674 -4 8 C-4 4.09161134 -2.49432124 2.88405893 0 0 Z " fill="#8EDB2D" transform="translate(44,22)"/>
<path d="M0 0 C0.99 0.33 1.98 0.66 3 1 C-0.75 6.875 -0.75 6.875 -3 8 C-3 6.68 -3 5.36 -3 4 C-2.34 3.67 -1.68 3.34 -1 3 C-0.67 2.01 -0.34 1.02 0 0 Z " fill="#94CF3B" transform="translate(199,180)"/>
<path d="M0 0 C2.0625 2.1875 2.0625 2.1875 4 5 C3.75 7.8125 3.75 7.8125 3 10 C2.67 9.01 2.34 8.02 2 7 C1.34 7 0.68 7 0 7 C0 4.69 0 2.38 0 0 Z " fill="#91D429" transform="translate(210,56)"/>
<path d="M0 0 C5.29441695 -0.50423019 7.81413519 0.81076967 12 4 C11.34 4.66 10.68 5.32 10 6 C9.649375 5.54625 9.29875 5.0925 8.9375 4.625 C6.22903794 2.35338666 3.39204672 1.83201146 0 1 C0 0.67 0 0.34 0 0 Z " fill="#8CD544" transform="translate(153,57)"/>
<path d="M0 0 C0.33 0 0.66 0 1 0 C1.08082094 1.95766281 1.13910778 3.91626728 1.1875 5.875 C1.23970703 7.51082031 1.23970703 7.51082031 1.29296875 9.1796875 C1.19628906 10.11039063 1.09960938 11.04109375 1 12 C0.01 12.66 -0.98 13.32 -2 14 C-1.34 9.38 -0.68 4.76 0 0 Z " fill="#010500" transform="translate(100,87)"/>
<path d="M0 0 C-5.75 4 -5.75 4 -8 4 C-7.1875 2.0625 -7.1875 2.0625 -6 0 C-3 -1 -3 -1 0 0 Z " fill="#90CC39" transform="translate(178,205)"/>
</svg>
