<svg width="600" height="600" viewBox="0 0 600 600" fill="none" xmlns="http://www.w3.org/2000/svg">
<path d="M300 600C465.685 600 600 465.685 600 300C600 134.315 465.685 0 300 0C134.315 0 0 134.315 0 300C0 465.685 134.315 600 300 600Z" fill="#FF007A"/>
<g clip-path="url(#clip0_2_18)">
<path d="M262.733 186.723C257.647 185.997 257.405 185.755 259.827 185.513C264.428 184.787 275.083 185.755 282.59 187.449C300.026 191.563 315.767 202.211 332.476 220.845L336.835 225.927L343.131 224.959C370.011 220.603 397.618 223.991 420.624 234.639C426.92 237.543 436.849 243.351 438.06 244.803C438.544 245.287 439.27 248.433 439.755 251.579C441.45 262.954 440.723 271.424 437.091 277.958C435.154 281.588 435.154 282.556 436.364 285.702C437.333 288.122 440.239 289.816 442.903 289.816C448.715 289.816 454.769 280.62 457.675 267.794L458.886 262.712L461.065 265.132C473.416 278.926 483.102 298.044 484.555 311.596L485.04 315.226L482.86 312.08C479.228 306.514 475.837 302.884 471.236 299.738C463.003 294.172 454.285 292.478 431.279 291.268C410.453 290.058 398.587 288.364 386.963 284.492C367.105 277.958 356.935 269.488 333.445 238.269C323.032 224.475 316.493 216.973 309.955 210.681C295.667 196.887 281.379 189.627 262.733 186.723Z" fill="white"/>
<path d="M443.145 217.457C443.629 208.261 444.84 202.211 447.504 196.645C448.473 194.467 449.441 192.531 449.683 192.531C449.926 192.531 449.441 194.225 448.715 196.161C446.777 201.485 446.535 208.987 447.746 217.457C449.441 228.347 450.168 229.799 461.792 241.657C467.119 247.223 473.416 254.241 475.837 257.145L479.954 262.47L475.837 258.598C470.752 253.757 459.128 244.561 456.464 243.351C454.769 242.383 454.527 242.383 453.316 243.593C452.347 244.561 452.105 246.013 452.105 253.031C451.863 263.922 450.41 270.698 446.777 277.716C444.84 281.346 444.598 280.62 446.293 276.506C447.504 273.36 447.746 271.908 447.746 261.502C447.746 240.447 445.325 235.365 430.552 226.895C426.92 224.717 420.624 221.571 416.991 219.877C413.117 218.183 410.211 216.731 410.453 216.731C410.937 216.247 425.225 220.361 430.795 222.781C439.27 226.169 440.723 226.411 441.692 226.169C442.419 225.443 442.903 223.507 443.145 217.457Z" fill="white"/>
<path d="M272.661 253.515C262.49 239.479 255.952 217.699 257.405 201.485L257.889 196.403L260.311 196.887C264.67 197.613 272.177 200.517 275.809 202.695C285.496 208.503 289.855 216.489 293.972 236.333C295.183 242.141 296.878 248.917 297.604 251.095C298.815 254.725 303.416 263.196 307.291 268.52C309.955 272.392 308.26 274.328 302.205 273.844C293.003 272.876 280.653 264.406 272.661 253.515Z" fill="white"/>
<path d="M430.795 358.786C382.846 339.426 365.895 322.728 365.895 294.414C365.895 290.3 366.137 286.912 366.137 286.912C366.379 286.912 368.074 288.364 370.254 290.058C379.94 297.802 390.838 301.19 421.108 305.546C438.786 308.208 448.957 310.144 458.159 313.29C487.461 322.97 505.624 342.814 509.983 369.676C511.193 377.421 510.467 392.183 508.53 399.927C506.834 405.977 501.991 417.109 500.78 417.351C500.538 417.351 500.054 416.141 500.054 414.205C499.569 404.041 494.484 394.361 486.008 386.859C475.837 378.147 462.76 371.612 430.795 358.786Z" fill="white"/>
<path d="M396.892 366.772C396.407 363.142 395.197 358.544 394.47 356.608L393.259 352.978L395.439 355.64C398.587 359.27 401.008 363.626 403.188 369.676C404.883 374.275 404.883 375.727 404.883 383.229C404.883 390.489 404.641 392.183 403.188 396.297C400.766 402.831 397.86 407.429 393.017 412.511C384.299 421.465 372.917 426.305 356.692 428.483C353.786 428.725 345.553 429.451 338.288 429.935C320.126 430.903 308.017 432.839 297.12 436.711C295.667 437.195 294.214 437.679 293.972 437.437C293.487 436.953 300.995 432.597 307.049 429.693C315.524 425.579 324.242 423.401 343.373 420.013C352.818 418.561 362.504 416.625 364.926 415.657C388.9 408.155 400.766 389.521 396.892 366.772Z" fill="white"/>
<path d="M418.929 405.735C412.632 391.941 411.179 378.873 414.57 366.53C415.054 365.32 415.538 364.11 416.023 364.11C416.507 364.11 417.96 364.836 419.413 365.804C422.319 367.74 428.373 371.129 443.872 379.599C463.487 390.247 474.626 398.475 482.376 407.913C489.156 416.141 493.273 425.579 495.21 437.195C496.421 443.729 495.695 459.459 494 465.993C488.672 486.564 476.564 503.02 458.886 512.458C456.222 513.91 454.042 514.878 453.8 514.878C453.558 514.878 454.527 512.458 455.98 509.554C461.792 497.212 462.518 485.354 458.159 472.043C455.495 463.815 449.926 453.893 438.786 437.195C425.467 417.835 422.319 412.753 418.929 405.735Z" fill="white"/>
<path d="M238.516 479.787C256.436 464.783 278.473 454.135 298.815 450.747C307.533 449.295 322.063 449.779 330.054 451.957C342.889 455.345 354.513 462.605 360.567 471.559C366.379 480.271 369.043 487.773 371.707 504.472C372.675 511.006 373.886 517.782 374.128 519.234C376.066 527.946 379.94 534.722 384.784 538.352C392.291 543.918 405.367 544.16 418.202 539.32C420.382 538.594 422.319 537.868 422.319 538.11C422.803 538.594 416.265 542.95 411.906 545.128C405.852 548.274 401.009 549.242 394.47 549.242C382.846 549.242 372.917 543.192 364.926 531.092C363.231 528.672 359.841 521.654 356.935 515.12C348.459 495.517 344.1 489.709 334.171 483.175C325.453 477.609 314.314 476.399 305.838 480.513C294.698 485.837 291.792 500.116 299.542 508.828C302.69 512.458 308.502 515.362 313.345 516.088C322.305 517.298 330.054 510.28 330.054 501.326C330.054 495.518 327.875 492.129 322.063 489.467C314.314 486.079 305.838 489.951 306.08 497.454C306.08 500.6 307.533 502.536 310.681 503.988C312.619 504.956 312.618 504.956 311.166 504.714C304.143 503.262 302.448 494.549 308.017 488.983C314.798 482.207 329.086 485.111 333.929 494.549C335.866 498.422 336.108 506.166 334.413 511.006C330.296 521.654 318.673 527.22 306.807 524.074C298.815 521.896 295.425 519.718 285.738 509.796C268.787 492.371 262.248 488.983 238.032 485.353L233.431 484.627L238.516 479.787Z" fill="white"/>
<path fill-rule="evenodd" clip-rule="evenodd" d="M111.138 90.4061C167.562 158.893 254.499 265.374 258.858 271.182C262.49 276.022 261.037 280.62 254.983 284.008C251.593 285.944 244.57 287.88 241.18 287.88C237.305 287.88 232.704 285.944 229.556 282.798C227.377 280.62 217.932 266.826 196.622 233.671C180.397 208.261 166.593 187.207 166.351 186.965C165.383 186.481 165.383 186.481 194.927 239.237C213.573 272.392 219.627 284.25 219.627 285.702C219.627 288.848 218.659 290.542 214.784 294.898C208.246 302.158 205.34 310.386 203.16 327.568C200.739 346.686 194.2 360.238 175.553 383.229C164.656 396.781 162.961 399.201 160.297 404.767C156.907 411.543 155.938 415.415 155.454 424.127C154.969 433.323 155.938 439.131 158.602 447.843C161.024 455.587 163.687 460.669 170.226 470.591C175.796 479.303 179.186 485.837 179.186 488.257C179.186 490.193 179.67 490.193 188.388 488.257C209.214 483.417 226.408 475.189 235.852 465.025C241.664 458.733 243.117 455.345 243.117 446.633C243.117 441.067 242.875 439.857 241.422 436.469C239 431.145 234.399 426.789 224.471 420.013C211.394 411.059 205.824 403.799 204.371 394.119C203.16 385.891 204.613 380.325 211.878 365.078C219.385 349.348 221.322 342.814 222.533 326.842C223.26 316.678 224.471 312.564 227.377 309.418C230.525 306.03 233.189 304.82 240.696 303.852C253.046 302.158 261.037 299.012 267.334 292.962C272.904 287.88 275.325 282.798 275.567 275.296L275.809 269.73L272.661 266.342C261.28 253.273 103.631 80 102.904 80C102.662 80 106.537 84.598 111.138 90.4061ZM185.482 434.533C188.146 429.935 186.693 424.127 182.334 421.223C178.217 418.561 171.921 419.771 171.921 423.401C171.921 424.369 172.405 425.337 173.858 425.821C176.038 427.031 176.28 428.241 174.585 430.903C172.89 433.565 172.89 435.985 175.069 437.679C178.459 440.341 183.061 438.889 185.482 434.533Z" fill="white"/>
<path fill-rule="evenodd" clip-rule="evenodd" d="M283.559 307.24C277.747 308.934 272.177 315.226 270.482 321.518C269.513 325.39 269.998 332.408 271.693 334.586C274.356 337.974 276.778 338.942 283.559 338.942C296.878 338.942 308.26 333.134 309.47 326.116C310.681 320.308 305.596 312.322 298.573 308.692C294.94 306.756 287.433 306.03 283.559 307.24ZM299.057 319.34C300.995 316.436 300.268 313.29 296.636 311.112C290.097 306.998 280.168 310.386 280.168 316.678C280.168 319.824 285.254 323.212 290.097 323.212C293.245 323.212 297.604 321.276 299.057 319.34Z" fill="white"/>
</g>
<defs>
<clipPath id="clip0_2_18">
<rect width="407.563" height="469" fill="white" transform="translate(102.904 80)"/>
</clipPath>
</defs>
</svg>
